<svg width="66" height="66" viewBox="0 0 66 66" fill="none" xmlns="http://www.w3.org/2000/svg">
<path d="M32.99 1C50.6545 1 64.98 15.33 64.98 33C64.98 42.34 60.9812 50.74 54.6032 56.59C54.1933 55.24 53.5335 53.85 52.5039 52.82C51.0743 51.39 46.5657 49.6 43.1868 48.41C53.2537 42.03 49.7647 35.89 48.855 24.23C47.9453 12.57 39.168 12.08 39.168 12.08C39.168 12.08 37.6185 10.11 31.7204 9.55C25.8222 8.99 19.6442 14.49 18.6545 16.43C17.6048 18.5 16.885 23.62 16.965 28.09C17.035 31.81 16.5751 38.31 14.9956 40.59C13.5561 42.68 8.62759 45.23 6.91813 49.58C6.72819 50.06 6.57824 50.51 6.46827 50.92C2.99935 45.81 0.97998 39.64 0.97998 33C0.999974 15.33 15.3255 1 32.99 1Z" fill="#E7E8E9"/>
<path d="M23.2238 32.97C21.4638 33.28 20.8438 31.32 20.7738 29.99C20.7038 28.66 21.4038 26.62 22.7838 26.62H22.8238C22.7938 27.1 22.7838 27.6 22.7838 28.1C22.7838 29.8 22.9338 31.44 23.2238 32.97Z" fill="#E7E8E9"/>
<path d="M39.1681 47.05L32.99 50.42L27.3718 47.19C27.3718 47.19 28.4914 41.72 27.9216 41.28C29.3211 42.24 31.0006 42.79 32.99 42.79C34.9794 42.79 36.6589 42.25 38.0584 41.28C38.0584 41.29 38.3983 46.21 39.1681 47.05Z" fill="#E7E8E9"/>
<path d="M52.5139 52.81C53.5435 53.84 54.1933 55.24 54.6132 56.58C48.925 61.81 41.3374 64.99 33 64.99C25.0025 64.99 17.6947 62.06 12.0965 57.21C12.8263 55.33 13.9259 53.19 15.4454 51.96C19.0943 49.01 27.3817 47.18 27.3817 47.18L33 50.41L39.178 47.04C39.178 47.04 40.9375 47.58 43.2068 48.39C46.5757 49.6 51.0843 51.38 52.5139 52.81Z" fill="#E7E8E9"/>
<path d="M43.1769 29.04C43.1869 28.72 43.1969 28.4 43.1969 28.08C43.1969 27.58 43.1869 27.09 43.1569 26.6H43.1969C44.5769 26.6 45.2769 28.64 45.2069 29.97C45.1369 31.3 44.5169 33.26 42.7569 32.95C42.9969 31.72 43.1369 30.41 43.1769 29.04Z" fill="#E7E8E9"/>
<path d="M43.1768 29.04C43.1368 30.41 42.9968 31.72 42.7469 32.96C42.0471 36.6 40.4976 39.59 38.0484 41.28C36.6488 42.24 34.9693 42.79 32.98 42.79C30.9906 42.79 29.3011 42.25 27.9115 41.28C25.4723 39.59 23.9228 36.6 23.223 32.96C22.9231 31.43 22.7831 29.79 22.7831 28.08C22.7831 27.58 22.7931 27.09 22.8231 26.6C22.8431 26.12 22.8831 25.65 22.9331 25.19C26.1821 23.79 30.9506 17.96 31.4504 19.65C31.9403 21.34 28.5014 23.09 30.1209 23.37C31.7404 23.65 37.5685 18.59 38.4083 19.65C39.248 20.7 37.9184 22.88 39.178 24.01C40.4376 25.13 41.5673 23.78 41.7772 25.2C41.9772 26.61 41.7172 28.56 43.1768 29.04Z" fill="#E7E8E9"/>
<path d="M10.9369 54.02C10.8769 54.08 10.4071 54.6 9.79724 55.03C8.58762 53.76 7.47797 52.38 6.48828 50.92C6.60824 50.51 6.7482 50.07 6.93814 49.58C8.6476 45.22 13.5761 42.68 15.0156 40.59C16.5951 38.3 17.045 31.81 16.985 28.09C16.905 23.62 17.6248 18.5 18.6745 16.43C19.6641 14.48 25.8322 8.97999 31.7404 9.54999C37.6385 10.11 39.1881 12.08 39.1881 12.08C39.1881 12.08 47.9653 12.57 48.875 24.23C49.7848 35.89 53.2737 42.03 43.2068 48.41C40.9375 47.61 39.1781 47.06 39.1781 47.06C38.4083 46.22 38.0684 41.29 38.0684 41.29C40.5176 39.6 42.0672 36.61 42.7669 32.97C44.5264 33.28 45.1462 31.32 45.2162 29.99C45.2862 28.66 44.5864 26.62 43.2068 26.62H43.1668C42.7869 19.19 39.508 13.39 33 13.39C26.9119 13.39 23.6429 18.47 22.9431 25.21C22.8931 25.67 22.8532 26.14 22.8332 26.62H22.7932C21.4136 26.62 20.7138 28.66 20.7838 29.99C20.8538 31.32 21.4736 33.28 23.233 32.97C23.9328 36.61 25.4823 39.6 27.9216 41.29C28.5014 41.73 27.3718 47.2 27.3718 47.2C27.3718 47.2 19.0843 49.03 15.4355 51.98C13.916 53.21 12.8263 55.35 12.0865 57.23C11.5467 56.77 11.0269 56.29 10.527 55.79C10.577 54.97 10.8969 54.11 10.9369 54.02Z" fill="#A7A9AC"/>
<path d="M43.1569 26.61C43.1868 27.09 43.1968 27.59 43.1968 28.09C43.1968 28.41 43.1968 28.73 43.1768 29.05C41.7073 28.57 41.9772 26.61 41.7673 25.21C41.5573 23.8 40.4377 25.15 39.1681 24.02C37.9085 22.9 39.2381 20.72 38.3983 19.66C37.5586 18.61 31.7304 23.66 30.1109 23.38C28.4914 23.1 31.9403 21.34 31.4405 19.66C30.9507 17.97 26.1721 23.8 22.9232 25.2C23.6229 18.46 26.8919 13.38 32.98 13.38C39.498 13.38 42.777 19.18 43.1569 26.61Z" fill="#A7A9AC"/>
<path d="M22.8231 26.61C22.7931 27.09 22.7831 27.59 22.7831 28.09C22.7831 29.8 22.9231 31.44 23.223 32.97C23.9228 36.61 25.4723 39.6 27.9115 41.29C29.3111 42.25 30.9906 42.8 32.98 42.8C34.9693 42.8 36.6488 42.26 38.0484 41.29C40.4976 39.6 42.0471 36.61 42.7469 32.97C42.9868 31.73 43.1268 30.41 43.1768 29.05C43.1868 28.73 43.1968 28.41 43.1968 28.09C43.1968 27.59 43.1868 27.1 43.1568 26.61C42.7769 19.18 39.4979 13.38 32.99 13.38C26.9019 13.38 23.6329 18.46 22.9331 25.2C22.8831 25.66 22.8431 26.13 22.8231 26.61Z" stroke="#A7A9AC" stroke-miterlimit="10"/>
<path d="M43.197 26.61C44.577 26.61 45.277 28.65 45.207 29.98C45.137 31.31 44.517 33.27 42.757 32.96" stroke="#A7A9AC" stroke-width="0.7805" stroke-miterlimit="10"/>
<path d="M22.7838 26.61C21.4038 26.61 20.7038 28.65 20.7738 29.98C20.8438 31.31 21.4638 33.27 23.2238 32.96" stroke="#A7A9AC" stroke-width="0.7805" stroke-miterlimit="10"/>
<path d="M38.0584 41.29C38.0584 41.29 38.3983 46.21 39.1681 47.06L32.99 50.43L27.3718 47.2C27.3718 47.2 28.4914 41.73 27.9216 41.29" stroke="#A7A9AC" stroke-width="0.7805" stroke-miterlimit="10" stroke-linejoin="round"/>
<path d="M12.0865 57.22C12.8163 55.34 13.9159 53.2 15.4354 51.97C19.0843 49.02 27.3717 47.19 27.3717 47.19" stroke="#A7A9AC" stroke-width="0.7805" stroke-miterlimit="10"/>
<path d="M39.168 47.05C39.168 47.05 40.9275 47.59 43.1968 48.4C46.5757 49.6 51.0843 51.38 52.5139 52.81C53.5435 53.84 54.1933 55.24 54.6132 56.58" stroke="#A7A9AC" stroke-width="0.7805" stroke-miterlimit="10"/>
<path d="M6.48828 50.92C6.60824 50.51 6.7482 50.07 6.93814 49.58C8.6476 45.22 13.5761 42.68 15.0156 40.59C16.5951 38.3 17.045 31.81 16.985 28.09C16.905 23.62 17.6248 18.5 18.6745 16.43C19.6641 14.48 25.8322 8.97999 31.7404 9.54999C37.6385 10.11 39.1881 12.08 39.1881 12.08C39.1881 12.08 47.9653 12.57 48.875 24.23C49.7848 35.89 53.2737 42.03 43.2068 48.41" stroke="#A7A9AC" stroke-width="0.7805" stroke-miterlimit="74"/>
<path d="M10.9372 54.01C10.8772 54.08 10.4072 54.6 9.78723 55.03" stroke="#A7A9AC" stroke-width="0.7805" stroke-miterlimit="74"/>
<path d="M10.527 55.78C10.577 54.97 10.897 54.11 10.937 54.02" stroke="#A7A9AC" stroke-width="0.7805" stroke-miterlimit="74"/>
<path d="M22.9332 25.2C26.1822 23.8 30.9507 17.97 31.4505 19.66C31.9404 21.35 28.5014 23.1 30.1209 23.38C31.7404 23.66 37.5686 18.6 38.4083 19.66C39.2481 20.71 37.9185 22.89 39.1781 24.02C40.4377 25.14 41.5673 23.79 41.7773 25.21C41.9872 26.62 41.7273 28.57 43.1868 29.05C43.1868 29.05 43.1968 29.05 43.2068 29.05" stroke="#A7A9AC" stroke-miterlimit="10"/>
<path d="M54.6032 56.59C60.9812 50.74 64.98 42.34 64.98 33C64.98 15.33 50.6545 1 32.99 1C15.3255 1 1 15.33 1 33C1 39.64 3.01937 45.81 6.48829 50.92C7.47798 52.38 8.58763 53.75 9.79725 55.03C10.0372 55.29 10.2771 55.54 10.527 55.78C11.0269 56.28 11.5467 56.76 12.0865 57.22C17.6848 62.07 24.9925 65 32.99 65C41.3274 65 48.915 61.81 54.6032 56.59Z" stroke="#A7A9AC" stroke-miterlimit="10"/>
</svg>
