<svg width="66" height="66" viewBox="0 0 66 66" fill="none" xmlns="http://www.w3.org/2000/svg">
<path d="M23.0039 32.74C21.2439 33.05 20.6239 31.09 20.5539 29.76C20.5139 28.92 20.7739 27.8 21.3139 27.09C21.6339 26.67 22.0539 26.4 22.5639 26.4H22.6039C22.5739 26.88 22.5639 27.38 22.5639 27.88C22.5639 28.26 22.5739 28.63 22.5839 29C22.6339 30.29 22.7739 31.55 23.0039 32.74Z" fill="#E7E8E9"/>
<path d="M44.2271 27.08C44.7771 27.79 45.037 28.91 44.987 29.75C44.917 31.08 44.297 33.04 42.537 32.73C42.767 31.54 42.907 30.28 42.957 28.98C42.977 28.61 42.9771 28.23 42.9771 27.86C42.9771 27.36 42.967 26.87 42.937 26.38H42.9771C43.4871 26.38 43.9071 26.66 44.2271 27.08Z" fill="#E7E8E9"/>
<path d="M38.9482 46.82L32.7701 50.19L27.1519 46.96C27.1519 46.96 28.2715 41.49 27.7017 41.05C29.1012 42.01 30.7807 42.56 32.7701 42.56C34.7595 42.56 36.449 42.02 37.8385 41.05C37.8385 41.06 38.1784 45.98 38.9482 46.82Z" fill="#E7E8E9"/>
<path d="M41.9672 28.98H42.9469C42.8969 30.29 42.7569 31.54 42.527 32.73C41.8272 36.37 40.2777 39.36 37.8385 41.05C36.4389 42.01 34.7595 42.56 32.7701 42.56C30.7807 42.56 29.0912 42.02 27.7017 41.05C25.2624 39.36 23.7129 36.37 23.0131 32.73C22.7832 31.54 22.6432 30.28 22.5933 28.98H23.573C23.573 28.98 23.433 27.79 23.573 25.89C23.7129 23.99 24.3427 25.05 24.6926 23.71C25.0425 22.38 24.5526 20.13 25.1125 19C25.6723 17.87 32.7701 19 32.7701 19C32.7701 19 39.8579 17.88 40.4277 19C40.9975 20.12 40.4977 22.37 40.8476 23.71C41.1974 25.04 41.8272 23.99 41.9672 25.89C42.1072 27.79 41.9672 28.98 41.9672 28.98Z" fill="#E7E8E9"/>
<path d="M52.294 52.58C53.4336 53.72 54.1034 55.29 54.5033 56.76C48.8151 61.97 41.2374 65.15 32.91 65.15C24.8126 65.15 17.4249 62.14 11.7866 57.18C12.5164 55.25 13.6361 53 15.2156 51.73C18.8644 48.78 27.1518 46.95 27.1518 46.95L32.7701 50.18L38.9481 46.81C38.9481 46.82 49.9047 50.2 52.294 52.58Z" fill="#E7E8E9"/>
<path d="M32.91 1.16C50.5745 1.16 64.9 15.49 64.9 33.16C64.9 42.51 60.8913 50.92 54.5033 56.77C54.1034 55.3 53.4236 53.73 52.294 52.59C49.9047 50.2 38.9481 46.83 38.9481 46.83C38.1784 45.99 37.8385 41.06 37.8385 41.06C40.2777 39.37 41.8272 36.38 42.527 32.74C44.2865 33.05 44.9063 31.09 44.9763 29.76C45.0162 28.92 44.7563 27.8 44.2165 27.09L44.3465 21.2C45.2562 21.13 45.746 19.44 44.9863 19.09C43.5867 13.54 36.349 12 33.04 12H32.7601H32.4802C29.1812 12 21.9434 13.55 20.5339 19.09C19.7641 19.44 20.254 21.13 21.1737 21.2L21.3037 27.09C20.7538 27.8 20.4939 28.92 20.5439 29.76C20.6139 31.09 21.2337 33.05 22.9931 32.74C23.6929 36.38 25.2424 39.37 27.6817 41.06C28.2615 41.5 27.1318 46.97 27.1318 46.97C27.1318 46.97 18.8444 48.8 15.1956 51.75C13.626 53.02 12.4964 55.27 11.7666 57.2C5.09872 51.34 0.900024 42.75 0.900024 33.17C0.920018 15.49 15.2455 1.16 32.91 1.16Z" fill="#E7E8E9"/>
<path d="M44.9963 19.08C45.766 19.43 45.2762 21.12 44.3565 21.19L44.2265 27.08C43.9066 26.66 43.4867 26.39 42.9769 26.39H42.9369C42.7969 23.49 42.1971 20.83 41.1375 18.67C39.498 15.31 36.7288 13.16 32.7701 13.16V11.99H33.05C36.349 11.98 43.5967 13.53 44.9963 19.08Z" fill="#A7A9AC"/>
<path d="M42.9376 26.38C42.9676 26.86 42.9776 27.36 42.9776 27.86C42.9776 28.24 42.9676 28.61 42.9576 28.98H41.9776C41.9776 28.98 42.1176 27.79 41.9776 25.89C41.8376 23.99 41.2076 25.05 40.8576 23.71C40.5076 22.38 40.9976 20.13 40.4376 19L41.1476 18.66C42.1976 20.82 42.7876 23.48 42.9376 26.38Z" fill="#A7A9AC"/>
<path d="M41.1375 18.66L40.4277 19C39.8679 17.88 32.7701 19 32.7701 19C32.7701 19 25.6823 17.88 25.1125 19L24.4027 18.66C26.0422 15.3 28.8113 13.15 32.7701 13.15C36.7289 13.15 39.498 15.3 41.1375 18.66Z" fill="#A7A9AC"/>
<path d="M32.77 11.98V13.15C28.8113 13.15 26.0421 15.3 24.4026 18.66C23.343 20.82 22.7532 23.48 22.6032 26.38H22.5632C22.0534 26.38 21.6335 26.66 21.3136 27.07L21.1836 21.18C20.2739 21.11 19.7841 19.42 20.5438 19.07C21.9434 13.52 29.1811 11.98 32.4901 11.98H32.77V11.98Z" fill="#A7A9AC"/>
<path d="M24.4032 18.66L25.1132 19C24.5532 20.12 25.0432 22.37 24.6932 23.71C24.3432 25.04 23.7132 23.99 23.5732 25.89C23.4332 27.79 23.5732 28.98 23.5732 28.98H22.5932C22.5732 28.61 22.5732 28.23 22.5732 27.86C22.5732 27.36 22.5832 26.87 22.6132 26.38C22.7432 23.48 23.3432 20.82 24.4032 18.66Z" fill="#A7A9AC"/>
<path d="M22.6033 26.38C22.5733 26.86 22.5633 27.36 22.5633 27.86C22.5633 28.24 22.5733 28.61 22.5833 28.98C22.6333 30.29 22.7732 31.54 23.0031 32.73C23.7029 36.37 25.2524 39.36 27.6917 41.05C29.0912 42.01 30.7707 42.56 32.7601 42.56C34.7495 42.56 36.4389 42.02 37.8285 41.05C40.2677 39.36 41.8173 36.37 42.517 32.73C42.747 31.54 42.8869 30.28 42.9369 28.98C42.9569 28.61 42.9569 28.23 42.9569 27.86C42.9569 27.36 42.9469 26.87 42.9169 26.38C42.777 23.48 42.1772 20.82 41.1175 18.66C39.478 15.3 36.7089 13.15 32.7501 13.15C28.7913 13.15 26.0222 15.3 24.3827 18.66C23.343 20.82 22.7432 23.48 22.6033 26.38Z" stroke="#A7A9AC" stroke-width="0.7805" stroke-miterlimit="10"/>
<path d="M44.2271 27.08C44.7771 27.79 45.037 28.91 44.987 29.75C44.917 31.08 44.297 33.04 42.537 32.73" stroke="#A7A9AC" stroke-width="0.7805" stroke-miterlimit="10"/>
<path d="M42.9769 26.38C43.4869 26.38 43.9069 26.66 44.2269 27.07" stroke="#A7A9AC" stroke-width="0.7805" stroke-miterlimit="10"/>
<path d="M21.3139 27.08C20.7639 27.79 20.5038 28.91 20.5538 29.75C20.6238 31.08 21.2438 33.04 23.0038 32.73" stroke="#A7A9AC" stroke-width="0.7805" stroke-miterlimit="10"/>
<path d="M22.5637 26.38C22.0537 26.38 21.6337 26.66 21.3137 27.07" stroke="#A7A9AC" stroke-width="0.7805" stroke-miterlimit="10"/>
<path d="M37.8385 41.06C37.8385 41.06 38.1784 45.98 38.9482 46.83L32.7701 50.2L27.1519 46.97C27.1519 46.97 28.2715 41.5 27.7017 41.06" stroke="#A7A9AC" stroke-width="0.7805" stroke-miterlimit="10" stroke-linejoin="round"/>
<path d="M11.7866 57.19C12.5164 55.26 13.6361 53.01 15.2156 51.74C18.8644 48.79 27.1518 46.96 27.1518 46.96" stroke="#A7A9AC" stroke-width="0.7805" stroke-miterlimit="10"/>
<path d="M38.9482 46.82C38.9482 46.82 49.9047 50.19 52.294 52.58C53.4336 53.72 54.1034 55.29 54.5033 56.76" stroke="#A7A9AC" stroke-width="0.7805" stroke-miterlimit="10"/>
<path d="M21.3137 27.08L21.1837 21.18C20.274 21.11 19.7841 19.42 20.5439 19.07C21.9435 13.52 29.1812 11.98 32.4902 11.98H32.7701H33.05C36.349 11.98 43.5967 13.53 44.9963 19.07C45.766 19.42 45.2762 21.11 44.3565 21.18L44.2265 27.07" stroke="#A7A9AC" stroke-width="0.7805" stroke-miterlimit="10"/>
<path d="M22.5833 28.98H23.563C23.563 28.98 23.423 27.79 23.563 25.89C23.7029 23.99 24.3327 25.05 24.6826 23.71C25.0325 22.38 24.5426 20.13 25.1025 19C25.6623 17.87 32.7601 19 32.7601 19C32.7601 19 39.8479 17.88 40.4177 19C40.9875 20.12 40.4877 22.37 40.8376 23.71C41.1874 25.04 41.8172 23.99 41.9572 25.89C42.0972 27.79 41.9572 28.98 41.9572 28.98H42.9369" stroke="#A7A9AC" stroke-width="0.7805" stroke-miterlimit="10"/>
<path d="M54.5033 56.76C60.8913 50.91 64.9 42.5 64.9 33.15C64.9 15.48 50.5745 1.14999 32.91 1.14999C15.2456 1.14999 0.920044 15.48 0.920044 33.15C0.920044 42.73 5.12872 51.32 11.7866 57.18C17.4249 62.14 24.8126 65.15 32.91 65.15C41.2374 65.16 48.8151 61.98 54.5033 56.76Z" stroke="#A7A9AC" stroke-width="0.7805" stroke-miterlimit="10"/>
</svg>
