<svg width="16" height="16" viewBox="0 0 16 16" fill="none" xmlns="http://www.w3.org/2000/svg">
<path d="M15.5312 1H0.46875C0.209875 1 0 1.18364 0 1.41016V11.9539C0 12.1804 0.209875 12.3641 0.46875 12.3641H3.0125V14.5898C3.0125 14.7557 3.12672 14.9053 3.30188 14.9688C3.35988 14.9898 3.42078 15 3.48116 15C3.60316 15 3.72306 14.9583 3.81272 14.8799L6.68791 12.3641H15.5312C15.7901 12.3641 16 12.1804 16 11.9539V1.41016C16 1.18364 15.7901 1 15.5312 1ZM15.0625 11.5438H6.49375C6.36944 11.5438 6.25019 11.587 6.16231 11.6639L3.95003 13.5996V11.9539C3.95003 11.7274 3.74016 11.5438 3.48128 11.5438H0.9375V1.82031H15.0625V11.5438Z" fill="#150E08"/>
</svg>
