<svg width="16" height="16" viewBox="0 0 16 16" fill="none" xmlns="http://www.w3.org/2000/svg">
<path d="M16 2.09316C16 0.937118 15.0629 0 13.9068 0H2.09316C0.937118 0 0 0.937118 0 2.09316V13.9068C0 15.0629 0.937118 16 2.09316 16H13.9068C15.0629 16 16 15.0629 16 13.9068V2.09316ZM3.59148 13.0651C3.24482 13.1581 2.92757 12.8409 3.02056 12.4942L3.59544 10.3514L5.73419 12.4902L3.59148 13.0651ZM12.828 5.27252L6.49824 11.6024L4.36929 9.47346L10.6991 3.14366C10.9993 2.84344 11.4859 2.84344 11.7862 3.14366L12.828 4.18555C13.1282 4.48568 13.1282 4.9723 12.828 5.27252Z" fill="#150E08"/>
</svg>
