<svg width="16" height="16" viewBox="0 0 16 16" fill="none" xmlns="http://www.w3.org/2000/svg">
<path d="M3.55531 8.62432L10.6755 15.7444C10.8402 15.9092 11.06 16 11.2944 16C11.5288 16 11.7487 15.9092 11.9134 15.7444L12.4377 15.2202C12.7789 14.8786 12.7789 14.3234 12.4377 13.9823L6.4587 8.00332L12.4443 2.01768C12.609 1.85286 12.7 1.63316 12.7 1.39888C12.7 1.16435 12.609 0.944643 12.4443 0.779701L11.92 0.255608C11.7552 0.0907963 11.5355 7.19104e-07 11.3011 7.19104e-07C11.0667 7.19104e-07 10.8468 0.0907963 10.6821 0.255608L3.55531 7.38218C3.39024 7.54752 3.29957 7.76826 3.30009 8.00293C3.29957 8.2385 3.39024 8.45912 3.55531 8.62432Z" fill="#150E08"/>
</svg>
