<svg id="Layer_1" enable-background="new 0 0 511.214 511.214" height="512" viewBox="0 0 511.214 511.214" width="512" xmlns="http://www.w3.org/2000/svg"><path d="m472.63 73.689c-49.336-51.42-138.101-51.452-187.476-.078l-22.946 22.293-25.66-25.66c-54.088-54.089-142.098-54.089-196.186 0-53.815 51.634-53.816 144.552 0 196.186l2.599 2.599-5.078 5.079c-19.357 18.572-19.356 51.99 0 70.562l.442.442c9.298 9.298 21.621 14.464 34.749 14.601.137 13.128 5.304 25.45 14.601 34.748l.442.442c9.479 9.476 22.124 14.692 35.531 14.608.327 12.84 5.467 24.864 14.583 33.98l.442.442c18.573 19.357 51.99 19.356 70.562 0l6.676-6.675 29.868 29.869c19.214 19.213 50.478 19.212 69.693-.001 9.417-9.417 14.206-21.727 14.393-34.095 25.539.13 48.072-21.925 48.464-47.482 36.444-.393 58.469-41.317 38.961-71.964l55.041-52.051c51.73-49.292 51.859-138.384.299-187.845zm-384.957 250.21c-7.405 7.718-20.731 7.718-28.136 0l-.442-.442c-7.718-7.406-7.718-20.73 0-28.136l27.544-27.545c7.76-7.759 20.382-7.754 28.142.006l.437.437c7.756 7.756 7.757 20.376.004 28.133zm49.792 49.792c-7.405 7.719-20.731 7.718-28.136 0l-.442-.442c-7.718-7.406-7.717-20.731 0-28.137l45.023-45.022c7.41-7.72 20.73-7.719 28.142.006l.437.437c7.718 7.406 7.717 20.731 0 28.137zm68.412 31.175-17.857 17.855c-7.41 7.72-20.73 7.719-28.142-.006l-.439-.439c-7.716-7.405-7.714-20.73.002-28.134l17.857-17.855c7.41-7.72 20.73-7.719 28.142.006l.437.437c7.719 7.404 7.718 20.73 0 28.136zm183.685-54.256c-6.6 6.599-17.337 6.601-23.937 0l-29.759-29.759c-5.857-5.857-15.355-5.857-21.213 0s-5.858 15.355 0 21.213l28.093 28.093c17.34 18.843-8.445 44.602-27.268 27.269l-27.945-27.945c-5.857-5.857-15.355-5.857-21.213 0s-5.858 15.355 0 21.213l27.8 27.8c.048.05.089.104.138.153 7.518 7.518 7.518 19.751 0 27.268-7.518 7.52-19.75 7.517-27.268.001l-31.312-31.312c10.503-18.755 6.942-44.051-8.594-59.091l-.437-.437c-5.1-5.1-11.114-8.947-17.667-11.416 14.156-19.013 11.878-47.822-5.285-64.345l-.437-.437c-13.809-14.18-36.169-18.53-54.312-10.869-2.285-7.695-6.458-14.943-12.522-21.008l-.437-.437c-19.454-19.453-51.107-19.452-70.563 0l-1.253 1.253-2.598-2.598c-42.392-42.392-42.392-111.368 0-153.76 42.393-42.391 111.369-42.391 153.76 0l25.355 25.354-48.084 46.716c-21.47 19.91-21.769 56.506-.631 76.765 20.993 20.992 55.151 20.992 76.143 0l16.585-16.585c.521-.521 1.371-.521 1.893 0l102.966 102.966c6.567 6.299 6.567 17.634.002 23.935zm61.999-110.724-54.665 51.695-89.087-89.087c-11.664-12.157-32.654-12.157-44.318 0l-16.585 16.585c-9.296 9.295-24.421 9.295-33.717-.002-9.367-8.988-9.23-25.175.301-34.012l92.646-90.012c100.092-92.501 237.484 44.455 145.425 144.833z"/></svg>