<svg width="16" height="16" viewBox="0 0 16 16" fill="none" xmlns="http://www.w3.org/2000/svg">
<path d="M12.7188 1.4375H3.28125C1.47192 1.4375 0 2.90942 0 4.71875V9.78662C0 11.2303 0.947876 12.4878 2.32141 12.8903L3.90613 14.4751C3.99414 14.563 4.11328 14.6124 4.23767 14.6124C4.36194 14.6124 4.4812 14.563 4.56909 14.4751L6.02283 13.0212H12.7188C14.5281 13.0212 16 11.5493 16 9.73999V4.71875C16 2.90942 14.5281 1.4375 12.7188 1.4375ZM4.55493 8.05786C4.55493 7.79895 4.76477 7.58911 5.02368 7.58911H10.9763C11.2352 7.58911 11.4451 7.79895 11.4451 8.05786C11.4451 8.31677 11.2352 8.52661 10.9763 8.52661H5.02368C4.76477 8.52661 4.55493 8.31677 4.55493 8.05786ZM10.9763 6.86963H5.02368C4.76477 6.86963 4.55493 6.65979 4.55493 6.40088C4.55493 6.14209 4.76477 5.93213 5.02368 5.93213H10.9763C11.2352 5.93213 11.4451 6.14209 11.4451 6.40088C11.4451 6.65979 11.2352 6.86963 10.9763 6.86963Z" fill="#150E08"/>
</svg>
