<svg width="16" height="16" viewBox="0 0 16 16" fill="none" xmlns="http://www.w3.org/2000/svg">
<g clip-path="url(#clip0)">
<path d="M14.0349 7.5319C13.9272 7.52375 14.3352 7.42748 8.90905 8.79609C8.68699 8.85211 8.53123 9.05202 8.53123 9.28102C8.53123 13.3733 8.53111 12.4387 8.53111 13.1291C7.57072 12.7551 6.5314 13.4681 6.5314 14.4978C6.5314 14.8882 6.68169 15.2601 6.95456 15.5447C7.53638 16.1517 8.46346 16.1517 9.04528 15.5447C9.31818 15.2601 9.46843 14.8882 9.46843 14.4978V11.6542L13.5303 10.6038V12.1292C12.5843 11.7608 11.5616 12.4473 11.5313 13.4522C11.5078 14.235 12.1144 14.9093 12.8957 14.9629C13.8112 15.0258 14.4677 14.3732 14.4677 13.3381C14.4677 13.3001 14.4693 7.98946 14.4648 7.94743C14.4408 7.73047 14.2658 7.54999 14.0349 7.5319V7.5319Z" fill="#150E08"/>
<path d="M7.49989 6.78029C7.9313 6.78029 8.28102 6.43056 8.28102 5.99915C8.28102 5.56774 7.9313 5.21802 7.49989 5.21802C7.06849 5.21802 6.71877 5.56774 6.71877 5.99915C6.71877 6.43056 7.06849 6.78029 7.49989 6.78029Z" fill="#150E08"/>
<path d="M7.59385 11.9651V8.52622C7.59385 8.3115 7.73973 8.12428 7.94795 8.07175L13.4283 6.68981C13.8391 3.11238 11.0445 0 7.49996 0C4.20926 0 1.5321 2.69119 1.5321 5.9991C1.5321 9.41165 4.33712 12.0205 7.59385 11.9651V11.9651ZM5.78147 5.9991C5.78147 5.05152 6.55238 4.28061 7.49996 4.28061C8.44753 4.28061 9.21845 5.05152 9.21845 5.9991C9.21845 6.94667 8.44753 7.71759 7.49996 7.71759C6.55238 7.71759 5.78147 6.94667 5.78147 5.9991Z" fill="#150E08"/>
</g>
<defs>
<clipPath id="clip0">
<rect width="16" height="16" fill="white"/>
</clipPath>
</defs>
</svg>
