<svg width="16" height="16" viewBox="0 0 16 16" fill="none" xmlns="http://www.w3.org/2000/svg">
<path d="M8 6C6.89734 6 6 6.89734 6 8C6 9.10266 6.89734 10 8 10C9.10266 10 10 9.10266 10 8C10 6.89734 9.10266 6 8 6Z" fill="#150E08"/>
<path d="M15.4593 6.64L14.5767 6.47C14.1813 6.39466 13.8713 6.136 13.724 5.76266C13.5767 5.38731 13.6287 4.98666 13.8674 4.662L14.4214 3.906C14.616 3.64134 14.5874 3.27334 14.3547 3.04134L13.1581 1.84469C12.9327 1.61869 12.5767 1.58534 12.3134 1.76403L11.5688 2.26737C11.2368 2.49337 10.8354 2.53003 10.4654 2.37003C10.0968 2.20869 9.84941 1.88869 9.78875 1.49069L9.64609 0.565344C9.596 0.24 9.316 0 8.98666 0H7.29466C6.97531 0 6.70066 0.226656 6.64 0.540656L6.42066 1.68066C6.34666 2.06666 6.096 2.37466 5.73266 2.52466C5.36931 2.676 4.97331 2.63531 4.648 2.41466L3.68666 1.764C3.42331 1.58534 3.06866 1.61866 2.842 1.84466L1.64534 3.04134C1.41269 3.27334 1.384 3.64134 1.57869 3.906L2.13269 4.66266C2.37134 4.98666 2.42334 5.38731 2.27603 5.76266C2.12869 6.136 1.81869 6.39466 1.42269 6.47L0.540688 6.64C0.226656 6.70066 0 6.97534 0 7.29466V8.98666C0 9.316 0.24 9.596 0.565344 9.646L1.49069 9.78866C1.88869 9.84931 2.20869 10.0967 2.37003 10.4653C2.53069 10.834 2.49337 11.236 2.26737 11.5693L1.76403 12.3133C1.58469 12.5773 1.61869 12.932 1.84469 13.158L3.04134 14.3546C3.274 14.588 3.64134 14.6146 3.906 14.4213L4.66266 13.8673C4.98666 13.6293 5.38666 13.5779 5.76266 13.7239C6.136 13.8713 6.39466 14.1813 6.47 14.5773L6.64 15.4593C6.70066 15.7733 6.97534 16 7.29466 16H8.98666C9.316 16 9.596 15.76 9.646 15.4347L9.746 14.784C9.80866 14.3767 10.0627 14.0533 10.4427 13.8967C10.82 13.7393 11.23 13.788 11.5627 14.032L12.094 14.4213C12.3573 14.6147 12.726 14.588 12.9587 14.3547L14.1553 13.158C14.3813 12.932 14.4153 12.5774 14.236 12.3134L13.7326 11.5687C13.5066 11.2361 13.4693 10.8341 13.63 10.4654C13.7913 10.0967 14.1113 9.84938 14.5093 9.78872L15.4347 9.64606C15.76 9.59606 16 9.31606 16 8.98672V7.29472C16 6.97534 15.7733 6.70066 15.4593 6.64ZM8 11.3333C6.162 11.3333 4.66666 9.838 4.66666 8C4.66666 6.162 6.162 4.66666 8 4.66666C9.838 4.66666 11.3333 6.162 11.3333 8C11.3333 9.838 9.838 11.3333 8 11.3333Z" fill="#150E08"/>
</svg>
