<svg width="16" height="16" viewBox="0 0 16 16" fill="none" xmlns="http://www.w3.org/2000/svg">
<path d="M4.85399 1.78571C3.24364 1.78571 1.93355 3.17477 1.93355 4.88214C1.93355 6.58952 3.24364 7.97858 4.85399 7.97858C6.46433 7.97858 7.77445 6.58952 7.77445 4.88214C7.77445 3.17477 6.46436 1.78571 4.85399 1.78571Z" fill="#150E08"/>
<path d="M11.4937 2.22882C11.4871 2.22882 11.4804 2.22885 11.4738 2.22888C10.798 2.23448 10.1667 2.51982 9.69637 3.03241C9.23424 3.53595 8.98296 4.20023 8.98875 4.90285C8.99456 5.60548 9.25678 6.26551 9.72712 6.76138C10.2012 7.2611 10.8291 7.53554 11.4975 7.53554C11.5042 7.53554 11.5109 7.53551 11.5176 7.53548C12.1935 7.52988 12.8247 7.24451 13.2951 6.73195C13.7572 6.22841 14.0085 5.56413 14.0027 4.86148C13.9907 3.40541 12.8671 2.22882 11.4937 2.22882Z" fill="#150E08"/>
<path d="M11.6169 8.04242H11.3744C10.245 8.04242 9.21437 8.47179 8.43625 9.17554C8.63094 9.32492 8.81625 9.48773 8.99187 9.66336C9.51 10.1815 9.91687 10.7852 10.2012 11.4577C10.4575 12.0634 10.6037 12.7015 10.6378 13.3587H16V12.4252C16 10.0087 14.0337 8.04242 11.6169 8.04242Z" fill="#150E08"/>
<path d="M9.69844 13.3587C9.61 11.934 8.88781 10.6809 7.81 9.87776C7.02594 9.29339 6.05344 8.94745 5 8.94745H4.70813C2.10781 8.94748 0 11.0553 0 13.6556V14.2143H9.70781V13.6556C9.70781 13.5559 9.70469 13.4568 9.69844 13.3587Z" fill="#150E08"/>
</svg>
